<svg width="49" height="49" viewBox="0 0 49 49" fill="none" xmlns="http://www.w3.org/2000/svg">
<path d="M19 20C19 21.5913 19.6321 23.1174 20.7574 24.2426C21.8826 25.3679 23.4087 26 25 26C26.5913 26 28.1174 25.3679 29.2426 24.2426C30.3679 23.1174 31 21.5913 31 20C31 18.4087 30.3679 16.8826 29.2426 15.7574C28.1174 14.6321 26.5913 14 25 14C23.4087 14 21.8826 14.6321 20.7574 15.7574C19.6321 16.8826 19 18.4087 19 20Z" stroke="white" stroke-width="2" stroke-linecap="round" stroke-linejoin="round"/>
<path d="M39 45C38.1133 27.6667 11.8867 27.6667 11 45" stroke="white" stroke-width="2" stroke-linecap="round" stroke-linejoin="round"/>
</svg>
