<svg width="318" height="121" viewBox="0 0 318 121" fill="none" xmlns="http://www.w3.org/2000/svg">
<path d="M32.1967 4.34715L33.5701 5.42751H34.9434C34.9434 4.70727 35.1723 4.34715 35.63 4.34715C35.63 4.60438 36.0878 5.06739 37.0034 5.73618C37.9189 5.37606 38.3767 5.04167 38.3767 4.73299C41.988 5.40179 44.1751 5.73618 44.9381 5.73618H49.1344C55.5941 7.07377 61.011 9.51743 65.3853 13.0672C69.3018 16.1025 71.2601 18.6747 71.2601 20.784C72.3791 20.784 73.1929 23.7164 73.7015 29.5812L73.3201 31.2789C73.5744 31.7419 73.7015 32.102 73.7015 32.3593C73.2438 33.5425 72.8877 34.1341 72.6334 34.1341L73.0149 34.8287C71.2855 38.9957 68.7423 42.031 65.3853 43.9345L61.952 45.6322C56.3061 45.6322 53.0763 44.4747 52.2625 42.1596C51.8047 41.5938 51.5758 41.1307 51.5758 40.7706L51.881 38.9957C50.5077 38.5327 49.821 38.0697 49.821 37.6067C50.2788 37.6067 50.5077 37.3752 50.5077 36.9122V36.2177C48.8292 36.2177 47.7865 34.4685 47.3796 30.9702C44.4803 27.0089 40.4367 25.0283 35.2486 25.0283H33.1886C26.9832 26.8289 23.8805 30.5587 23.8805 36.2177C23.8805 41.5166 26.5254 45.1178 31.8153 47.0213C49.821 50.8282 70.0085 56.9888 76.4482 57.902C82.8879 58.8152 96.1286 68.6715 96.8954 75.162C96.8954 75.162 99.0317 80.4609 98.6502 84.2679C98.2687 88.0748 96.107 97.9267 95.1406 97.9267C95.1406 100.499 91.2241 104.923 83.3911 111.2C83.3911 111.56 82.7044 112.151 81.3311 112.974H79.5763V114.364H77.8215L76.4482 116.061L75.7615 115.753C73.6761 117.142 72.1756 117.836 71.2601 117.836C68.2083 119.688 65.2073 120.614 62.2572 120.614C31.8153 111.894 61.5197 120.305 61.2654 120.305L58.8239 120.614C58.417 120.408 57.9592 120.305 57.4506 120.305C57.4506 120.768 57.2217 121 56.7639 121H53.2543C52.7457 121 52.2879 120.871 51.881 120.614C51.4741 120.871 51.0163 121 50.5077 121C49.8973 119.611 49.4395 118.916 49.1344 118.916H48.4477C48.4477 119.585 48.2188 119.92 47.761 119.92C47.1507 119.92 46.7946 119.457 46.6929 118.531H46.3877L45.3196 119.225C44.404 118.762 43.9463 118.428 43.9463 118.222L43.2596 118.531C41.4285 118.531 40.513 117.707 40.513 116.061H37.69L31.8153 111.894C26.9832 107.213 24.5672 103.843 24.5672 101.785C25.025 101.528 25.381 101.399 25.6353 101.399V101.013C24.2111 101.013 23.499 100.447 23.499 99.3157L21.4391 94.7628C21.6934 94.3512 21.8205 93.8882 21.8205 93.3737C21.1084 92.3448 20.7524 91.3931 20.7524 90.5185C20.7524 82.6473 23.3973 78.223 28.6871 77.2455C29.0432 76.9883 29.7553 76.8597 30.8234 76.8597C36.7745 77.8372 39.75 80.8724 39.75 85.9656C39.75 91.8818 42.6492 96.2032 48.4477 98.9298L55.0091 100.319H56.7639C61.4942 100.319 67.2673 98.3382 74.083 94.3769C79.1185 89.9011 81.6363 86.0685 81.6363 82.8788V80.0236C81.6363 78.4802 80.619 76.9626 78.5845 75.4707C78.1775 75.7279 77.6943 75.8565 77.1348 75.8565C77.1348 75.5993 77.0331 75.4707 76.8297 75.4707L77.1348 74.7761V74.4675C77.1348 74.0045 76.906 73.773 76.4482 73.773H76.143L74.7697 74.7761C73.5998 74.7761 72.5571 74.2102 71.6416 73.0784H70.9549C70.3445 73.5415 69.9885 73.773 69.8868 73.773H69.5816C66.7332 73.3099 63.9611 72.5897 61.2654 71.6122C60.4515 71.8695 59.9938 71.9981 59.892 71.9981C45.5485 69.6316 14.2673 61.6061 11.0629 57.902C10.6051 57.902 9.68954 57.2075 8.31622 55.8185C7.85845 56.0242 7.5024 56.1271 7.24808 56.1271L6.8666 55.4326V53.7349C5.49328 53.7349 4.80662 53.5034 4.80662 53.0404L5.1881 52.2687C3.30614 51.5999 2.03455 50.4424 1.37332 48.7961L2.05998 47.4071C1.70393 47.4071 1.34789 47.047 0.991843 46.3267L1.37332 44.2432C1.01727 44.2432 0.559501 43.7802 0 42.8542L0.68666 41.4651L0 40.0761C0.203455 38.8414 0.305182 38.1212 0.305182 37.9154L0 36.5264C1.37332 30.1471 3.66219 24.6682 6.8666 20.0895C8.54511 16.1282 10.2745 14.1475 12.0547 14.1475C12.2073 11.8325 12.7922 10.675 13.8095 10.675H15.8695C15.8695 8.56569 17.2682 7.51105 20.0657 7.51105C21.846 6.32781 24.0331 5.40179 26.6272 4.73299C27.3901 5.196 27.975 5.42751 28.382 5.42751C28.4328 4.9645 28.6617 4.73299 29.0686 4.73299H29.7553L30.7471 5.42751L32.1967 4.34715ZM29.0686 6.4307V7.12521H29.3738C29.8316 7.12521 30.0605 6.89371 30.0605 6.4307H29.0686ZM17.2428 9.5946C17.3445 10.0576 17.5988 10.2891 18.0058 10.2891C18.4635 10.2891 18.6924 10.0576 18.6924 9.5946C18.6924 9.13159 18.4635 8.90008 18.0058 8.90008C17.4971 8.95153 17.2428 9.18304 17.2428 9.5946ZM20.0657 8.90008C20.0657 9.15731 19.9386 9.51743 19.6843 9.98044L20.3709 10.2891L20.7524 9.5946V8.90008H20.0657ZM15.8695 12.3727V12.7585H16.9376V11.6781H16.5561C16.0984 11.781 15.8695 12.0125 15.8695 12.3727ZM13.1228 12.7585V13.453C13.1737 13.916 13.4026 14.1475 13.8095 14.1475C14.2673 14.1475 14.4962 13.916 14.4962 13.453V12.7585C14.4962 12.2955 14.2673 12.064 13.8095 12.064C13.3517 12.1154 13.1228 12.3469 13.1228 12.7585ZM68.8186 39.3816H69.5053V38.6871C69.0475 38.7385 68.8186 38.97 68.8186 39.3816ZM53.2543 39.6903L52.9491 40.3848V40.7706H53.941V40.3848C53.941 39.9218 53.7121 39.6903 53.2543 39.6903ZM66.4535 40.3848V41.4651H67.4453V40.3848H66.4535ZM53.6358 42.1596V42.8542C53.6867 43.3172 53.9155 43.5487 54.3225 43.5487H54.6276C55.0854 43.5487 55.3143 43.3172 55.3143 42.8542V42.4683C55.3143 42.0053 55.0854 41.7738 54.6276 41.7738C54.2207 42.031 53.8901 42.1596 53.6358 42.1596ZM56.7639 43.5487C56.8148 44.0117 57.0437 44.2432 57.4506 44.2432H58.1372C58.595 44.2432 58.8239 44.0117 58.8239 43.5487V43.24C58.8239 42.7256 58.595 42.4683 58.1372 42.4683H57.7558C57.4506 42.4683 57.12 42.8284 56.7639 43.5487ZM60.1972 43.24V44.2432C60.2481 44.7062 60.477 44.9377 60.8839 44.9377L61.2654 44.2432V43.24H60.1972ZM73.3201 72.3068V73.0784C73.4218 73.5415 73.6761 73.773 74.083 73.773L74.3882 73.0784V72.3068H73.3201ZM30.4419 105.952C30.4928 106.415 30.7217 106.647 31.1286 106.647C31.5864 106.647 31.8153 106.415 31.8153 105.952V105.258H31.1286C30.6708 105.309 30.4419 105.541 30.4419 105.952ZM28.382 106.261V107.033C28.4328 107.496 28.6617 107.727 29.0686 107.727L29.3738 107.033C29.3738 106.518 29.1449 106.261 28.6871 106.261H28.382ZM32.5019 107.033V108.036C32.5019 108.396 32.858 108.756 33.5701 109.116C34.0278 109.116 34.2567 108.885 34.2567 108.422V107.033C33.7989 107.033 33.5701 106.904 33.5701 106.647C33.1123 106.904 32.7562 107.033 32.5019 107.033ZM30.0605 108.73V109.116C30.1622 109.579 30.4165 109.811 30.8234 109.811H31.8153V108.73C31.8153 108.267 31.5864 108.036 31.1286 108.036H30.8234C30.3148 108.139 30.0605 108.37 30.0605 108.73ZM34.9434 109.811V110.119C34.9942 110.582 35.2231 110.814 35.63 110.814H36.3167C36.7745 110.814 37.0034 110.582 37.0034 110.119V109.116C36.5456 109.116 36.3167 108.987 36.3167 108.73C35.4012 109.09 34.9434 109.45 34.9434 109.811ZM32.8834 110.119C32.8834 110.376 32.7562 110.737 32.5019 111.2L33.5701 111.894C33.6209 111.431 33.8498 111.2 34.2567 111.2C34.0024 110.737 33.8752 110.376 33.8752 110.119H32.8834ZM34.9434 112.589V113.283H36.0115C36.4693 113.283 36.6982 113.052 36.6982 112.589C36.6982 112.126 36.4693 111.894 36.0115 111.894H35.63C35.1723 111.946 34.9434 112.177 34.9434 112.589ZM40.513 112.974C40.513 113.643 40.3858 113.978 40.1315 113.978C40.3858 114.441 40.513 114.801 40.513 115.058H40.8181C41.2759 115.058 41.5048 114.827 41.5048 114.364V113.669C41.5048 113.206 41.2759 112.974 40.8181 112.974H40.513ZM43.2596 113.283L42.8781 113.978C42.9798 114.441 43.2087 114.672 43.5648 114.672H44.2514V113.669C44.048 113.669 43.7174 113.54 43.2596 113.283ZM71.6416 115.367V116.061H73.0149V115.753L72.6334 115.058C72.2265 115.264 71.8959 115.367 71.6416 115.367ZM41.8863 116.447V117.527H42.5729C43.0307 117.527 43.2596 117.296 43.2596 116.833V116.447C43.2596 115.984 43.0307 115.753 42.5729 115.753C42.1152 115.804 41.8863 116.035 41.8863 116.447ZM44.6329 115.753V117.142H45.3196C45.7774 117.142 46.0062 116.91 46.0062 116.447V115.753H44.6329ZM47.3796 115.753V117.527H48.7529L49.1344 116.061L48.4477 115.753H47.3796ZM63.3253 116.447V117.142H64.3935V116.447H63.3253ZM60.5787 116.833V117.142H61.2654V116.833H60.5787ZM58.4424 117.836V118.916C58.5441 119.379 58.7985 119.611 59.2054 119.611H59.5106C59.9683 119.611 60.1972 119.379 60.1972 118.916V118.531C60.1972 118.068 59.9683 117.836 59.5106 117.836H58.4424ZM64.3935 118.916C64.4443 119.379 64.6732 119.611 65.0801 119.611H65.7668C65.9703 118.788 66.072 118.325 66.072 118.222L65.3853 117.836C65.0801 117.836 64.7495 118.196 64.3935 118.916ZM61.5705 118.222V118.916C61.6723 119.379 61.9012 119.611 62.2572 119.611H62.9439V118.222H61.5705ZM51.5758 119.611V120.305H52.2625V119.611H51.5758Z" fill="#FAF9F6"/>
<path d="M133.297 6.58503H133.494C136.35 8.09936 137.778 10.302 137.778 13.193H137.532C138.32 15.3957 138.713 17.3918 138.713 19.1815V19.801C137.466 27.648 136.842 32.6039 136.842 34.6689V36.3209C137.466 41.8735 148.282 48.0398 153.387 49.5369C158.491 51.034 162.595 61.7347 162.595 61.7347C162.135 69.7193 165.992 81.0625 165.204 87.1657V88.8177L166.14 101.345C166.14 104.145 164.958 107.013 162.595 109.949C160.231 111.051 158.967 111.601 158.803 111.601C154.404 109.72 152.205 107.196 152.205 104.03C151.877 103.846 151.565 102.401 151.27 99.6933C151.434 97.8119 151.975 95.8387 152.894 93.7737C153.059 93.7737 153.223 90.9056 153.387 85.1695C153.387 74.1562 152.041 68.6496 149.349 68.6496H148.414C143.096 70.6687 139.862 71.6783 138.713 71.6783L129.506 70.3016H129.062C125.419 70.3016 123.597 72.9631 123.597 78.2862C123.466 81.0396 123.4 82.6916 123.4 83.2422C123.695 88.703 124.155 92.8789 124.779 95.7698V99.418C124.779 103.181 123.285 106.691 120.298 109.949C117.934 111.28 116.441 111.946 115.817 111.946H114.882C110.778 110.615 108.727 108.091 108.727 104.374V99.418C109.974 93.4983 110.598 87.9917 110.598 82.898C110.138 79.0434 110.844 80.6667 109.908 73.9497C108.973 67.2328 81.3002 55.1497 81.3002 48.5732C81.3002 41.9968 82.2358 36.8716 82.2358 34.6689L81.3002 24.757V17.5295C81.4972 14.7303 82.6789 11.7475 84.8455 8.58119C86.2898 7.47986 87.8655 6.9292 89.5725 6.9292C91.6733 6.9292 93.4788 8.90242 94.9888 12.8488C95.9408 15.6481 96.4168 17.9654 96.4168 19.801V20.8335C95.6289 25.7436 95.0052 31.0208 94.5457 36.6651C94.5457 39.9232 95.7274 42.4471 98.0909 44.2367C98.1237 43.8237 98.2714 43.6172 98.534 43.6172C99.0593 44.0302 99.4532 44.2367 99.7158 44.2367L101.833 43.8926C102.161 43.8926 102.719 44.122 103.507 44.5809C104.032 44.122 104.508 43.8926 104.935 43.8926C105.099 43.8926 105.329 44.0073 105.625 44.2367C105.92 44.0073 106.232 43.8926 106.56 43.8926H107.052V44.2367L106.806 45.8887H107.988V44.9251C107.693 44.3744 107.545 44.0302 107.545 43.8926C107.676 43.8926 107.742 43.8008 107.742 43.6172L108.924 43.8926L110.598 43.6172C110.598 43.9385 110.827 44.2597 111.287 44.5809H111.533L112.469 43.6172C113.027 44.9021 113.667 45.5446 114.389 45.5446C114.586 44.4432 114.816 43.8926 115.079 43.8926C116.063 44.0302 116.851 44.4891 117.442 45.2692L118.181 44.5809C118.64 44.5809 118.87 45.0169 118.87 45.8887H119.559C119.559 44.3744 120.675 43.6172 122.908 43.6172C124.155 43.0666 124.779 41.6211 124.779 39.2808V35.9768C124.024 31.9386 123.63 28.6346 123.597 26.0648C123.597 17.3001 125.008 12.1376 127.832 10.5774C127.832 10.3938 128.39 9.72841 129.506 8.58119H129.949C130.113 8.58119 130.195 8.69592 130.195 8.92536C130.687 8.78769 131.081 8.12231 131.377 6.9292C131.902 7.38809 132.296 7.61753 132.559 7.61753C132.559 7.29631 132.805 6.95214 133.297 6.58503ZM133.297 7.89286V8.23703C133.33 8.69592 133.478 8.92536 133.74 8.92536H133.986C134.315 8.92536 134.479 8.69592 134.479 8.23703C134.315 7.82403 134.233 7.50281 134.233 7.27337H133.74C133.445 7.31925 133.297 7.52575 133.297 7.89286ZM134.922 9.54486V10.2332H135.661V9.54486H134.922ZM108.924 45.8887L109.662 46.5771C109.958 46.3476 110.187 46.2329 110.352 46.2329V45.5446C110.352 45.1316 110.204 44.9251 109.908 44.9251H109.662C109.432 44.9251 109.186 45.2463 108.924 45.8887ZM115.571 45.2692V45.5446C115.571 45.8658 115.801 46.21 116.26 46.5771L116.506 45.8887C116.506 45.4757 116.342 45.2692 116.014 45.2692H115.571ZM101.144 45.5446V45.8887H101.833V45.5446H101.144ZM111.533 45.8887V46.9212H111.779C112.108 46.9212 112.272 46.6918 112.272 46.2329V45.8887H111.533ZM105.378 47.1966C105.444 47.6555 105.608 47.8849 105.871 47.8849H106.363V47.1966C106.363 46.7836 106.199 46.5771 105.871 46.5771C105.542 46.623 105.378 46.8295 105.378 47.1966ZM117.442 47.1966C117.508 47.6555 117.672 47.8849 117.934 47.8849H118.378V46.5771H117.934C117.606 46.623 117.442 46.8295 117.442 47.1966ZM107.299 47.5407V47.8849C107.332 48.3438 107.479 48.5732 107.742 48.5732H108.234C108.562 48.5732 108.727 48.3438 108.727 47.8849V47.5407C108.727 47.1277 108.562 46.9212 108.234 46.9212H107.742C107.446 46.9671 107.299 47.1736 107.299 47.5407ZM114.389 47.5407L114.832 47.8849H115.079V46.9212H114.832C114.537 46.9671 114.389 47.1736 114.389 47.5407ZM109.662 47.5407V48.8486H110.352C110.68 48.8486 110.844 48.6421 110.844 48.2291V47.5407C110.516 47.5407 110.352 47.426 110.352 47.1966C110.056 47.426 109.826 47.5407 109.662 47.5407ZM116.26 47.8849C116.26 47.9767 116.113 48.2979 115.817 48.8486C115.85 49.3074 115.998 49.5369 116.26 49.5369H116.506C116.835 49.5369 116.999 49.3074 116.999 48.8486V48.2291C116.802 48.2291 116.556 48.1143 116.26 47.8849Z" fill="#FAF9F6"/>
<path d="M189.809 0H182.68C181.492 0 180.47 0.246245 179.615 0.738735C176.597 2.27093 175.089 8.48178 175.089 19.3713V27.169C174.875 34.5017 174.768 38.469 174.768 39.0709V39.8096L175.267 47.2791C176.883 69.277 178.332 83.2856 179.615 89.3049C179.615 91.8221 180.958 93.0807 183.643 93.0807H184.462C185.223 93.5731 185.65 93.8194 185.745 93.8194H186.244L187.385 93.0807V90.454C187.385 89.6332 186.898 87.3897 185.924 83.7233C185.924 75.8435 188.181 66.6777 192.696 56.226C197.02 45.0081 199.182 37.3198 199.182 33.161V19.6996C199.182 12.0387 198.481 6.5939 197.079 3.36535C196.343 1.12178 193.919 0 189.809 0Z" fill="#FAF9F6"/>
<path fill-rule="evenodd" clip-rule="evenodd" d="M180.898 96.0356H179.615C177.358 96.8017 176.229 99.0453 176.229 102.766V103.505C176.229 105.639 176.657 108.485 177.512 112.042C177.512 114.778 179.888 116.146 184.641 116.146H186.886C187.266 116.146 188.181 116.392 189.63 116.884C191.317 116.884 193.04 116.009 194.798 114.258C195.844 111.959 196.497 109.114 196.759 105.721C196.022 102.493 195.155 100.878 194.157 100.878L180.898 96.0356ZM188.832 110.359C188.598 108.78 188.335 107.007 191.044 107.007C191.044 104.279 188.494 102.068 185.347 102.068C183.358 102.068 182.908 103.384 182.435 104.768C182.16 105.573 181.877 106.401 181.278 107.007C181.278 109.734 184.643 112.769 187.789 112.769C189.19 112.769 189.02 111.626 188.832 110.359Z" fill="#FAF9F6"/>
<path d="M256.15 10.6852L219.528 12.3469C221.429 25.5174 220.763 29.6829 218.714 41.9796L253.812 43.2997V48.8908L217.9 50.2109C209.42 70.9484 215.597 101.245 217.969 107.83C220.342 114.415 219.528 111.946 219.528 111.946H212.359C205.59 84.6202 204.545 69.5122 212.203 43.2997C214.942 28.0832 214.678 19.7105 212.359 4.93878H256.15V10.6852Z" fill="#FAF9F6"/>
<path d="M263.474 9.46599L263.841 4.70172L318 5.7619V11.6094L299.282 10.5492C302.981 42.2428 251.716 68.6212 300.91 120.177H292.481C245.628 66.488 297.483 38.7397 292.481 10.5492L263.474 9.46599Z" fill="#FAF9F6"/>
</svg>
